<svg viewBox="0 0 24 24" fill="none" xmlns="http://www.w3.org/2000/svg">
<path d="M20 6L10 6M10 6C10 4.89543 9.10457 4 8 4C6.89543 4 6 4.89543 6 6M10 6C10 7.10457 9.10457 8 8 8C6.89543 8 6 7.10457 6 6M6 6L4 6M20 12H18M18 12C18 10.8954 17.1046 10 16 10C14.8954 10 14 10.8954 14 12M18 12C18 13.1046 17.1046 14 16 14C14.8954 14 14 13.1046 14 12M14 12L4 12M20 18L10 18M10 18C10 16.8954 9.10457 16 8 16C6.89543 16 6 16.8954 6 18M10 18C10 19.1046 9.10457 20 8 20C6.89543 20 6 19.1046 6 18M6 18H4" stroke="currentColor" stroke-linecap="round"/>
</svg>
