<svg viewBox="0 0 24 24" fill="none" xmlns="http://www.w3.org/2000/svg">
<path d="M10.2828 5.59106L9.67066 3.30664M10.2828 5.59106C11.6344 5.28396 13.0526 5.51468 14.2372 6.23443C15.4218 6.95417 16.28 8.10648 16.6302 9.44763L17.0961 11.1863C17.7136 13.491 19.6713 13.5835 19.98 14.7358C20.1335 15.3086 20.3144 15.9838 19.7948 16.123L7.31113 19.468C6.79147 19.6073 6.61055 18.9321 6.45707 18.3593C6.1483 17.2069 7.79743 16.148 7.17989 13.8433L6.71401 12.1047C6.34675 10.7681 6.51381 9.34105 7.17984 8.12543C7.84586 6.90981 8.95864 6.00094 10.2828 5.59106ZM3.78125 9.87501C3.92368 7.99799 4.60319 6.41387 5.86725 5.01901M9.43148 18.8999C9.74278 19.6985 10.1256 20.3085 10.8903 20.6956C11.655 21.0828 12.5356 21.1742 13.3635 20.9523C14.1914 20.7305 14.9084 20.211 15.3771 19.4934C15.8458 18.7758 16.2454 17.9561 16.1157 17.1088L9.43148 18.8999Z" stroke="currentColor" stroke-linecap="round" stroke-linejoin="round"/>
</svg>
