<svg viewBox="0 0 24 24" fill="none" xmlns="http://www.w3.org/2000/svg">
<path d="M12 5.464V3.099M12 5.464C13.3851 5.5172 14.6952 6.1071 15.6531 7.10892C16.6111 8.11074 17.1418 9.44591 17.133 10.832V12.632C17.133 15.018 19 15.614 19 16.807C19 17.4 19 18 18.462 18H5.538C5 18 5 17.4 5 16.807C5 15.614 6.867 15.018 6.867 12.632V10.832C6.85819 9.44591 7.38889 8.11074 8.34685 7.10892C9.30481 6.1071 10.6149 5.5172 12 5.464ZM6 5L5 4M4 9H3M18 5L19 4M20 9H21M8.54 18C8.63401 18.8519 9.03902 19.6393 9.67746 20.2111C10.3159 20.783 11.1429 21.0992 12 21.0992C12.8571 21.0992 13.6841 20.783 14.3225 20.2111C14.961 19.6393 15.366 18.8519 15.46 18H8.54Z" stroke="currentColor" stroke-linecap="round" stroke-linejoin="round"/>
</svg>
