<svg viewBox="0 0 24 24" fill="none" xmlns="http://www.w3.org/2000/svg">
<path d="M12.0001 18.5C12.0017 19.0243 11.838 19.5357 11.5322 19.9616C11.2265 20.3875 10.7943 20.7061 10.297 20.8722C9.79977 21.0383 9.2628 21.0435 8.76247 20.8869C8.26213 20.7303 7.8239 20.42 7.51007 20H7.50007C7.11491 20.0046 6.73402 19.9189 6.38789 19.7499C6.04175 19.5809 5.73998 19.3332 5.50673 19.0267C5.27347 18.7202 5.1152 18.3633 5.04459 17.9846C4.97398 17.6059 4.99298 17.216 5.10007 16.846C4.56951 16.6817 4.0954 16.3725 3.73119 15.9531C3.36699 15.5338 3.12718 15.0211 3.03881 14.4727C2.95043 13.9244 3.01701 13.3623 3.23103 12.8497C3.44504 12.3372 3.79799 11.8947 4.25007 11.572C3.98162 11.0218 3.92721 10.3915 4.09741 9.80352C4.26761 9.2155 4.65027 8.71171 5.17107 8.39C5.03708 8.04852 4.98061 7.68153 5.00574 7.31556C5.03087 6.9496 5.13697 6.59378 5.31638 6.27381C5.49578 5.95384 5.74402 5.67772 6.04315 5.46539C6.34228 5.25305 6.68483 5.10981 7.04607 5.046C7.15204 4.47218 7.4554 3.9535 7.90358 3.57983C8.35177 3.20616 8.91655 3.00103 9.50007 3C9.82838 3 10.1535 3.06466 10.4568 3.1903C10.7601 3.31594 11.0357 3.50009 11.2678 3.73223C11.5 3.96438 11.6841 4.23998 11.8098 4.54329C11.9354 4.84661 12.0001 5.1717 12.0001 5.5M12.0001 18.5V5.5M12.0001 18.5C11.9985 19.0243 12.1622 19.5357 12.4679 19.9616C12.7736 20.3875 13.2059 20.7061 13.7031 20.8722C14.2004 21.0383 14.7373 21.0435 15.2377 20.8869C15.738 20.7303 16.1762 20.42 16.4901 20H16.5001C16.8855 20.005 17.2667 19.9198 17.6133 19.7509C17.9598 19.5821 18.2619 19.3345 18.4955 19.0279C18.7291 18.7213 18.8877 18.3643 18.9584 17.9854C19.0292 17.6065 19.0102 17.2163 18.9031 16.846C19.4334 16.6814 19.9072 16.3718 20.2711 15.9523C20.635 15.5328 20.8745 15.02 20.9625 14.4717C21.0506 13.9234 20.9837 13.3614 20.7695 12.8491C20.5553 12.3368 20.2022 11.8944 19.7501 11.572C20.0185 11.0218 20.0729 10.3915 19.9027 9.80352C19.7325 9.2155 19.3499 8.71171 18.8291 8.39C18.9631 8.04852 19.0195 7.68153 18.9944 7.31556C18.9693 6.9496 18.8632 6.59378 18.6838 6.27381C18.5044 5.95384 18.2561 5.67772 17.957 5.46539C17.6579 5.25305 17.3153 5.10981 16.9541 5.046C16.8481 4.47218 16.5447 3.9535 16.0966 3.57983C15.6484 3.20616 15.0836 3.00103 14.5001 3C13.837 3 13.2011 3.26339 12.7323 3.73223C12.2635 4.20107 12.0001 4.83696 12.0001 5.5M4.00007 10.5C3.99999 10.0866 4.10242 9.67963 4.2982 9.31553C4.49398 8.95143 4.777 8.64156 5.12191 8.41366C5.46682 8.18577 5.86286 8.04696 6.27458 8.00968C6.68629 7.97239 7.10083 8.03778 7.48107 8.2M7.20007 16.751C6.5211 17.0483 5.75611 17.0837 5.05258 16.8504C4.34905 16.6171 3.75679 16.1316 3.38997 15.4875C3.02316 14.8435 2.90776 14.0864 3.06602 13.3623C3.22428 12.6382 3.645 11.9983 4.24707 11.566M20.0001 10.5C20.0002 10.0866 19.8977 9.67963 19.7019 9.31553C19.5062 8.95143 19.2232 8.64156 18.8782 8.41366C18.5333 8.18577 18.1373 8.04696 17.7256 8.00968C17.3139 7.97239 16.8993 8.03778 16.5191 8.2M16.8001 16.751C17.479 17.0483 18.244 17.0837 18.9476 16.8504C19.6511 16.6171 20.2434 16.1316 20.6102 15.4875C20.977 14.8435 21.0924 14.0864 20.9341 13.3623C20.7759 12.6382 20.3551 11.9983 19.7531 11.566" stroke="currentColor" stroke-linecap="round" stroke-linejoin="round"/>
</svg>
