<svg viewBox="0 0 24 24" fill="none" xmlns="http://www.w3.org/2000/svg">
<path d="M12 5.365V3M12 5.365C13.3851 5.4182 14.6952 6.00811 15.6531 7.00992C16.6111 8.01174 17.1418 9.34691 17.133 10.733V12.533C17.133 14.919 19 15.515 19 16.708C19 17.301 19 17.901 18.462 17.901H5.53797C4.99997 17.901 4.99997 17.301 4.99997 16.708C4.99997 15.515 6.86697 14.919 6.86697 12.533V10.733C6.85816 9.34691 7.38886 8.01174 8.34682 7.00992C9.30478 6.00811 10.6149 5.4182 12 5.365ZM3.86597 10.733C3.87415 8.61344 4.67785 6.57421 6.11797 5.019M20.134 10.733C20.1258 8.61344 19.3221 6.57421 17.882 5.019M8.53997 17.901C8.63397 18.7529 9.03899 19.5403 9.67743 20.1121C10.3159 20.684 11.1429 21.0002 12 21.0002C12.8571 21.0002 13.6841 20.684 14.3225 20.1121C14.9609 19.5403 15.366 18.7529 15.46 17.901H8.53997Z" stroke="currentColor" stroke-linecap="round" stroke-linejoin="round"/>
</svg>
