<svg viewBox="0 0 24 24" fill="none" xmlns="http://www.w3.org/2000/svg">
<path d="M20.283 8H15.9978M19.8482 11H15.9978M20.0591 5H11V16H19.2694L20.9847 6.153C21.0093 6.01508 21.0042 5.87347 20.9696 5.7377C20.9349 5.60193 20.8717 5.47516 20.784 5.36592C20.6963 5.25667 20.5862 5.16749 20.4612 5.10437C20.3361 5.04125 20.199 5.00566 20.0591 5ZM6.58119 13.2304H5.74279C5.64201 12.4909 5.60161 11.7453 5.62195 11C5.60161 10.2548 5.64201 9.50913 5.74279 8.76959H6.78223C7.03439 8.76975 7.2776 8.68244 7.46457 8.52462C7.65154 8.36681 7.76892 8.14977 7.79387 7.91572L7.99491 6.0434C8.00911 5.91152 7.99352 5.77832 7.94914 5.65241C7.90477 5.52649 7.8326 5.41064 7.73728 5.31233C7.64197 5.21403 7.52563 5.13544 7.39576 5.08165C7.26589 5.02786 7.12537 5.00005 6.98327 5.00001H4.92257C4.67283 4.99892 4.4289 5.07023 4.22449 5.20407C4.02008 5.33791 3.8653 5.52768 3.78154 5.74714C3.2134 7.44603 2.95176 9.22114 3.0073 11C2.97306 12.7713 3.24127 14.5363 3.80185 16.2289C3.96654 16.6908 5.14393 17 5.66579 17H6.78223C6.92433 17 7.06484 16.9722 7.19471 16.9184C7.32458 16.8646 7.44092 16.786 7.53624 16.6877C7.63155 16.5894 7.70372 16.4735 7.7481 16.3476C7.79247 16.2217 7.80806 16.0885 7.79387 15.9566L7.59282 14.0843C7.56787 13.8502 7.4505 13.6332 7.26353 13.4754C7.07655 13.3176 6.83334 13.2303 6.58119 13.2304ZM10 18V19H20V18C20 16.8954 19.1046 16 18 16H12C10.8954 16 10 16.8954 10 18Z" stroke="currentColor" stroke-linecap="round" stroke-linejoin="round"/>
</svg>
