<svg viewBox="0 0 24 24" fill="none" xmlns="http://www.w3.org/2000/svg">
<path d="M8 8V16M8 8C9.10457 8 10 7.10457 10 6C10 4.89543 9.10457 4 8 4C6.89543 4 6 4.89543 6 6C6 7.10457 6.89543 8 8 8ZM8 16C6.89543 16 6 16.8954 6 18C6 19.1046 6.89543 20 8 20C9.10457 20 10 19.1046 10 18C10 16.8954 9.10457 16 8 16ZM14 14C14 12.8954 14.8954 12 16 12C17.1046 12 18 12.8954 18 14C18 15.1046 17.1046 16 16 16C14.8954 16 14 15.1046 14 14ZM14 14H13C10.2386 14 8 11.7614 8 9V8.5" stroke="currentColor" stroke-linecap="round" stroke-linejoin="round"/>
</svg>
