<svg viewBox="0 0 24 24" fill="none" xmlns="http://www.w3.org/2000/svg">
<path d="M4 9.55005H3.5V10.55H4V9.55005ZM20 10.55H20.5V9.55005H20V10.55ZM10 14.5001C9.72386 14.5001 9.5 14.7239 9.5 15.0001C9.5 15.2762 9.72386 15.5001 10 15.5001V14.5001ZM14 15.5001C14.2761 15.5001 14.5 15.2762 14.5 15.0001C14.5 14.7239 14.2761 14.5001 14 14.5001V15.5001ZM11.5 17.0001C11.5 17.2762 11.7239 17.5001 12 17.5001C12.2761 17.5001 12.5 17.2762 12.5 17.0001H11.5ZM12.5 13.0001C12.5 12.7239 12.2761 12.5001 12 12.5001C11.7239 12.5001 11.5 12.7239 11.5 13.0001H12.5ZM11.5 7.05005C11.5 7.32619 11.7239 7.55005 12 7.55005C12.2761 7.55005 12.5 7.32619 12.5 7.05005H11.5ZM12.5 4.05005C12.5 3.77391 12.2761 3.55005 12 3.55005C11.7239 3.55005 11.5 3.77391 11.5 4.05005H12.5ZM6.5 7.05005C6.5 7.32619 6.72386 7.55005 7 7.55005C7.27614 7.55005 7.5 7.32619 7.5 7.05005H6.5ZM7.5 4.05005C7.5 3.77391 7.27614 3.55005 7 3.55005C6.72386 3.55005 6.5 3.77391 6.5 4.05005L7.5 4.05005ZM16.5 7.05005C16.5 7.32619 16.7239 7.55005 17 7.55005C17.2761 7.55005 17.5 7.32619 17.5 7.05005H16.5ZM17.5 4.05005C17.5 3.77391 17.2761 3.55005 17 3.55005C16.7239 3.55005 16.5 3.77391 16.5 4.05005H17.5ZM5 6.55005H19V5.55005H5V6.55005ZM19.5 7.05005V19.05H20.5V7.05005H19.5ZM19 19.55H5V20.55H19V19.55ZM4.5 19.05V7.05005H3.5V19.05H4.5ZM5 19.55C4.72386 19.55 4.5 19.3262 4.5 19.05H3.5C3.5 19.8785 4.17157 20.55 5 20.55V19.55ZM19.5 19.05C19.5 19.3262 19.2761 19.55 19 19.55V20.55C19.8284 20.55 20.5 19.8785 20.5 19.05H19.5ZM19 6.55005C19.2761 6.55005 19.5 6.77391 19.5 7.05005H20.5C20.5 6.22162 19.8284 5.55005 19 5.55005V6.55005ZM5 5.55005C4.17157 5.55005 3.5 6.22162 3.5 7.05005H4.5C4.5 6.77391 4.72386 6.55005 5 6.55005V5.55005ZM4 10.55H20V9.55005H4V10.55ZM10 15.5001H14V14.5001H10V15.5001ZM12.5 17.0001V13.0001H11.5V17.0001H12.5ZM12.5 7.05005V4.05005H11.5V7.05005H12.5ZM7.5 7.05005L7.5 4.05005L6.5 4.05005L6.5 7.05005H7.5ZM17.5 7.05005V4.05005H16.5V7.05005H17.5Z" fill="currentColor"/>
</svg>
