<svg viewBox="0 0 24 24" fill="none" xmlns="http://www.w3.org/2000/svg">
<path d="M10.855 14.322C10.4726 14.5357 10.0403 14.6441 9.60223 14.6361C9.16419 14.6281 8.73614 14.504 8.36178 14.2764C7.98743 14.0488 7.68019 13.7259 7.47146 13.3407C7.26273 12.9555 7.15998 12.5219 7.17371 12.084C7.18744 11.6461 7.31716 11.2197 7.54962 10.8483C7.78208 10.477 8.10894 10.174 8.49682 9.9703C8.8847 9.76661 9.3197 9.66954 9.75737 9.68899C10.195 9.70844 10.6197 9.84371 10.988 10.081M17.041 14.322C16.6586 14.5357 16.2263 14.6441 15.7882 14.6361C15.3502 14.6281 14.9221 14.504 14.5478 14.2764C14.1734 14.0488 13.8662 13.7259 13.6575 13.3407C13.4487 12.9555 13.346 12.5219 13.3597 12.084C13.3734 11.6461 13.5032 11.2197 13.7356 10.8483C13.9681 10.477 14.2949 10.174 14.6828 9.9703C15.0707 9.76661 15.5057 9.66954 15.9434 9.68899C16.381 9.70844 16.8057 9.84371 17.174 10.081M4 5H20C20.5523 5 21 5.44772 21 6V18C21 18.5523 20.5523 19 20 19H4C3.44772 19 3 18.5523 3 18V6C3 5.44772 3.44772 5 4 5Z" stroke="currentColor" stroke-linecap="round" stroke-linejoin="round"/>
</svg>
