<svg viewBox="0 0 24 24" fill="none" xmlns="http://www.w3.org/2000/svg">
<path d="M14.999 12C14.999 13.6563 13.6564 14.999 12.0001 14.999C10.3438 14.999 9.00116 13.6563 9.00116 12C9.00116 10.3438 10.3438 9.0011 12.0001 9.0011C13.6564 9.0011 14.999 10.3438 14.999 12Z" stroke="currentColor"/>
<path d="M10.1482 4C10.1482 3.44772 10.5959 3 11.1482 3H12.8519C13.4042 3 13.8519 3.44772 13.8519 4V4.74751C14.5521 4.92575 15.2128 5.20272 15.8184 5.56272L16.3475 5.03364C16.738 4.64312 17.3712 4.64312 17.7617 5.03364L18.9664 6.23837C19.357 6.6289 19.357 7.26206 18.9664 7.65258L18.4373 8.18168C18.7973 8.78729 19.0743 9.44802 19.2525 10.1482H20.0001C20.5524 10.1482 21.0001 10.5959 21.0001 11.1482V12.8519C21.0001 13.4042 20.5524 13.8519 20.0001 13.8519H19.2525C19.0742 14.552 18.7973 15.2127 18.4373 15.8183L18.9664 16.3474C19.357 16.738 19.357 17.3711 18.9664 17.7617L17.7617 18.9664C17.3712 19.3569 16.738 19.3569 16.3475 18.9664L15.8183 18.4372C15.2128 18.7972 14.5521 19.0741 13.8519 19.2524V20.0001C13.8519 20.5524 13.4042 21.0001 12.8519 21.0001H11.1482C10.5959 21.0001 10.1482 20.5524 10.1482 20.0001V19.2524C9.44807 19.0741 8.78737 18.7972 8.1818 18.4372L7.65265 18.9664C7.26212 19.3569 6.62896 19.3569 6.23843 18.9664L5.03371 17.7617C4.64318 17.3711 4.64318 16.738 5.03371 16.3474L5.56284 15.8183C5.20286 15.2127 4.9259 14.5521 4.74766 13.8519H4C3.44771 13.8519 3 13.4042 3 12.8519V11.1482C3 10.5959 3.44772 10.1482 4 10.1482H4.7476C4.92583 9.44802 5.20279 8.78728 5.56278 8.18166L5.03371 7.65258C4.64318 7.26206 4.64318 6.62889 5.03371 6.23837L6.23843 5.03364C6.62896 4.64312 7.26212 4.64312 7.65265 5.03364L8.18171 5.56271C8.78731 5.20271 9.44803 4.92575 10.1482 4.7475V4Z" stroke="currentColor"/>
</svg>
