<svg viewBox="0 0 24 24" fill="none" xmlns="http://www.w3.org/2000/svg">
<path d="M6 8V16M6 8C7.10457 8 8 7.10457 8 6C8 4.89543 7.10457 4 6 4C4.89543 4 4 4.89543 4 6C4 7.10457 4.89543 8 6 8ZM6 16C4.89543 16 4 16.8954 4 18C4 19.1046 4.89543 20 6 20C7.10457 20 8 19.1046 8 18C8 16.8954 7.10457 16 6 16ZM18 16C16.8954 16 16 16.8954 16 18C16 19.1046 16.8954 20 18 20C19.1046 20 20 19.1046 20 18C20 16.8954 19.1046 16 18 16ZM18 16V9C18 8.20435 17.6839 7.44129 17.1213 6.87868C16.5587 6.31607 15.7956 6 15 6H12M13.5 4L11.5 6L13.5 8" stroke="currentColor" stroke-linecap="round" stroke-linejoin="round"/>
</svg>
