<svg viewBox="0 0 24 24" fill="none" xmlns="http://www.w3.org/2000/svg">
<path d="M4 18V8C4 7.44772 4.44772 7 5 7H6.5L8.20711 5.29289C8.39464 5.10536 8.649 5 8.91421 5H15.0858C15.351 5 15.6054 5.10536 15.7929 5.29289L17.5 7H19C19.5523 7 20 7.44772 20 8V18C20 18.5523 19.5523 19 19 19H5C4.44772 19 4 18.5523 4 18Z" stroke="currentColor" stroke-linejoin="round"/>
<path d="M15 12C15 13.6569 13.6569 15 12 15C10.3431 15 9 13.6569 9 12C9 10.3431 10.3431 9 12 9C13.6569 9 15 10.3431 15 12Z" stroke="currentColor" stroke-linejoin="round"/>
</svg>
