<svg viewBox="0 0 24 24" fill="none" xmlns="http://www.w3.org/2000/svg">
<path d="M13.6 16.7333C13.8342 17.0017 14.1477 17.1887 14.4951 17.2674C14.8291 17.3851 15.1953 17.3718 15.52 17.2303C15.8446 17.0889 16.1036 16.8297 16.2449 16.505C16.4172 15.8898 15.7995 15.2178 15.0034 15.024C14.2074 14.8302 13.5922 14.1625 13.7619 13.543C13.9031 13.2182 14.1621 12.9589 14.4868 12.8174C14.8115 12.6759 15.1777 12.6627 15.5117 12.7806C15.8554 12.8581 16.1661 13.0416 16.4 13.3052M15.0422 17.3217V17.9394M15.0422 12V12.7254M4 15V19M7 13V19M6 8.5L10.5 5L14 7.5L18 4M18 4H14.5M18 4V7M20 15C20 17.7614 17.7614 20 15 20C12.2386 20 10 17.7614 10 15C10 12.2386 12.2386 10 15 10C17.7614 10 20 12.2386 20 15Z" stroke="currentColor" stroke-linecap="round" stroke-linejoin="round"/>
</svg>
