<svg viewBox="0 0 24 24" fill="none" xmlns="http://www.w3.org/2000/svg">
<path d="M11.5 11.5L13.571 13.494M4 10H9M20 10H18.5M12 7V4M7 7V4M17 7V4M10 17H8V15L13.227 9.708C13.5009 9.43437 13.8723 9.28067 14.2595 9.28067C14.6467 9.28067 15.0181 9.43437 15.292 9.708C15.5656 9.98195 15.7193 10.3533 15.7193 10.7405C15.7193 11.1277 15.5656 11.4991 15.292 11.773L10 17ZM5 20H19C19.5523 20 20 19.5523 20 19V7C20 6.44772 19.5523 6 19 6H5C4.44772 6 4 6.44772 4 7V19C4 19.5523 4.44772 20 5 20Z" stroke="currentColor" stroke-linecap="round" stroke-linejoin="round"/>
</svg>
