<svg viewBox="0 0 24 24" fill="none" xmlns="http://www.w3.org/2000/svg">
<path d="M15 17H18C18.7956 17 19.5587 16.6839 20.1213 16.1213C20.6839 15.5587 21 14.7957 21 14C21 13.2044 20.6839 12.4413 20.1213 11.8787C19.5587 11.3161 18.7956 11 18 11C17.991 11 17.983 11 17.975 11C17.99 10.834 18 10.667 18 10.5C17.9962 9.17336 17.5131 7.89279 16.6396 6.89429C15.7661 5.89579 14.5611 5.24667 13.2467 5.06656C11.9324 4.88645 10.5972 5.18749 9.48727 5.91419C8.37736 6.64089 7.56752 7.74428 7.207 9.02101C7.137 9.01701 7.071 9.00001 7 9.00001C5.93913 9.00001 4.92172 9.42144 4.17157 10.1716C3.42143 10.9217 3 11.9391 3 13C3 14.0609 3.42143 15.0783 4.17157 15.8284C4.92172 16.5786 5.93913 17 7 17H9.167M12 19V10M12 10L10 12M12 10L14 12" stroke="currentColor" stroke-linecap="round" stroke-linejoin="round"/>
</svg>
