<svg viewBox="0 0 24 24" fill="none" xmlns="http://www.w3.org/2000/svg">
<path fill-rule="evenodd" clip-rule="evenodd" d="M20.8788 11.2931L12.707 3.12126C12.3165 2.73074 11.6833 2.73074 11.2928 3.12126L3.12102 11.2931C2.73049 11.6836 2.73049 12.3168 3.12102 12.7073L11.2928 20.8791C11.6833 21.2696 12.3165 21.2696 12.707 20.8791L20.8788 12.7073C21.2694 12.3168 21.2694 11.6836 20.8788 11.2931ZM13.4141 2.41416C12.6331 1.63311 11.3668 1.63311 10.5857 2.41416L2.41391 10.586C1.63286 11.367 1.63286 12.6333 2.41391 13.4144L10.5857 21.5862C11.3668 22.3672 12.6331 22.3672 13.4141 21.5862L21.5859 13.4144C22.367 12.6333 22.367 11.367 21.5859 10.586L13.4141 2.41416Z" fill="currentColor"/>
</svg>
