<svg viewBox="0 0 24 24" fill="none" xmlns="http://www.w3.org/2000/svg">
<path d="M15.041 13.862C15.6503 14.3288 16.1439 14.9296 16.4836 15.6179C16.8233 16.3062 17 17.0635 17 17.831V21M7 3V6.169C6.99998 6.922 7.17004 7.66527 7.49747 8.34335C7.82491 9.02142 8.30127 9.61679 8.891 10.085M17 3V6.169C17 7.03256 16.7764 7.88142 16.3509 8.63288C15.9254 9.38434 15.3125 10.0128 14.572 10.457L9.428 13.543C8.68745 13.9872 8.07458 14.6157 7.64908 15.3671C7.22358 16.1186 6.99996 16.9674 7 17.831V21M7 5H17M7.399 8H16.651M8 16H16.652M7 19H17" stroke="currentColor" stroke-linecap="round" stroke-linejoin="round"/>
</svg>
