<svg viewBox="0 0 24 24" fill="none" xmlns="http://www.w3.org/2000/svg">
<path d="M10 3V7C10 7.55228 9.55228 8 9 8H5M13 15.5V8C13 8 16 9 16 12M19 4V20C19 20.5523 18.5523 21 18 21H6C5.44772 21 5 20.5523 5 20V7.91421C5 7.649 5.10536 7.39464 5.29289 7.20711L9.20711 3.29289C9.39464 3.10536 9.649 3 9.91421 3H18C18.5523 3 19 3.44772 19 4ZM13 16C13 17.1046 11.8807 18 10.5 18C9.11929 18 8 17.1046 8 16C8 14.8954 9.11929 14 10.5 14C11.8807 14 13 14.8954 13 16Z" stroke="currentColor" stroke-linecap="round" stroke-linejoin="round"/>
</svg>
