<svg viewBox="0 0 24 24" fill="none" xmlns="http://www.w3.org/2000/svg">
<path d="M18 5V4C18 3.44772 17.5523 3 17 3H8.91421C8.649 3 8.39464 3.10536 8.20711 3.29289L4.29289 7.20711C4.10536 7.39464 4 7.649 4 7.91421V20C4 20.5523 4.44772 21 5 21H17C17.5523 21 18 20.5523 18 20V15M9 3V7C9 7.55228 8.55228 8 8 8H4M15.383 8.77198L18.128 11.518M19.343 7.61198C19.537 7.8058 19.6909 8.03597 19.796 8.28932C19.901 8.54267 19.955 8.81423 19.955 9.08848C19.955 9.36273 19.901 9.63429 19.796 9.88764C19.6909 10.141 19.537 10.3712 19.343 10.565L12.693 17.211L9 17.95L9.739 14.258L16.385 7.61198C16.5789 7.4172 16.8094 7.26265 17.0632 7.15719C17.317 7.05173 17.5892 6.99744 17.864 6.99744C18.1388 6.99744 18.411 7.05173 18.6648 7.15719C18.9186 7.26265 19.1491 7.4172 19.343 7.61198Z" stroke="currentColor" stroke-linecap="round" stroke-linejoin="round"/>
</svg>
