<svg viewBox="0 0 24 24" fill="none" xmlns="http://www.w3.org/2000/svg">
<path d="M5 17V12H6.5C6.89782 12 7.27936 12.158 7.56066 12.4393C7.84196 12.7206 8 13.1022 8 13.5C8 13.8978 7.84196 14.2794 7.56066 14.5607C7.27936 14.842 6.89782 15 6.5 15H5M17 17V12H19M17 15H19M5 10V7.91421C5 7.649 5.10536 7.39464 5.29289 7.20711L9.20711 3.29289C9.39464 3.10536 9.649 3 9.91422 3H18C18.5523 3 19 3.44772 19 4V10M5 19V20C5 20.5523 5.44772 21 6 21H18C18.5523 21 19 20.5523 19 20V19M10 3V7C10 7.55228 9.55229 8 9 8H5M11 12V17H12.375C12.8059 16.9997 13.2191 16.8284 13.5238 16.5238C13.8284 16.2191 13.9997 15.8059 14 15.375V13.625C13.9997 13.1941 13.8284 12.7809 13.5238 12.4762C13.2191 12.1716 12.8059 12.0003 12.375 12H11Z" stroke="currentColor" stroke-linecap="round" stroke-linejoin="round"/>
</svg>
