<svg viewBox="0 0 24 24" fill="none" xmlns="http://www.w3.org/2000/svg">
<path d="M5.29289 7.20711L4.93934 6.85355L4.93934 6.85355L5.29289 7.20711ZM9.20711 3.29289L9.56066 3.64645V3.64645L9.20711 3.29289ZM4.5 10C4.5 10.2761 4.72386 10.5 5 10.5C5.27614 10.5 5.5 10.2761 5.5 10H4.5ZM5.5 19C5.5 18.7239 5.27614 18.5 5 18.5C4.72386 18.5 4.5 18.7239 4.5 19H5.5ZM18.5 10C18.5 10.2761 18.7239 10.5 19 10.5C19.2761 10.5 19.5 10.2761 19.5 10H18.5ZM19.5 19C19.5 18.7239 19.2761 18.5 19 18.5C18.7239 18.5 18.5 18.7239 18.5 19H19.5ZM7.665 17.5C7.94114 17.5 8.165 17.2761 8.165 17C8.165 16.7239 7.94114 16.5 7.665 16.5V17.5ZM7.665 12.5C7.94114 12.5 8.165 12.2761 8.165 12C8.165 11.7239 7.94114 11.5 7.665 11.5V12.5ZM16.4786 11.8553C16.3987 11.591 16.1196 11.4415 15.8553 11.5214C15.591 11.6013 15.4415 11.8804 15.5214 12.1447L16.4786 11.8553ZM17.443 16.773L16.9644 16.9177C17.0276 17.1268 17.2192 17.2706 17.4376 17.273C17.656 17.2753 17.8506 17.1357 17.9183 16.9281L17.443 16.773ZM19.4753 12.1551C19.561 11.8925 19.4176 11.6103 19.1551 11.5247C18.8925 11.439 18.6103 11.5824 18.5247 11.8449L19.4753 12.1551ZM13 12.5C13.2761 12.5 13.5 12.2761 13.5 12C13.5 11.7239 13.2761 11.5 13 11.5V12.5ZM11 16.5C10.7239 16.5 10.5 16.7239 10.5 17C10.5 17.2761 10.7239 17.5 11 17.5V16.5ZM18 20.5H6V21.5H18V20.5ZM5.64645 7.56066L9.56066 3.64645L8.85356 2.93934L4.93934 6.85355L5.64645 7.56066ZM9.91422 3.5H10V2.5H9.91422V3.5ZM10 3.5H18V2.5H10V3.5ZM5.5 10V8H4.5V10H5.5ZM5.5 8V7.91421H4.5V8H5.5ZM5.5 20V19H4.5V20H5.5ZM18.5 4V10H19.5V4H18.5ZM18.5 19V20H19.5V19H18.5ZM9.56066 3.64645C9.65443 3.55268 9.78161 3.5 9.91422 3.5V2.5C9.51639 2.5 9.13486 2.65803 8.85355 2.93934L9.56066 3.64645ZM4.93934 6.85355C4.65804 7.13486 4.5 7.51639 4.5 7.91421H5.5C5.5 7.78161 5.55268 7.65443 5.64645 7.56066L4.93934 6.85355ZM6 20.5C5.72386 20.5 5.5 20.2761 5.5 20H4.5C4.5 20.8284 5.17158 21.5 6 21.5V20.5ZM18 21.5C18.8284 21.5 19.5 20.8284 19.5 20H18.5C18.5 20.2761 18.2761 20.5 18 20.5V21.5ZM18 3.5C18.2761 3.5 18.5 3.72386 18.5 4H19.5C19.5 3.17157 18.8284 2.5 18 2.5V3.5ZM9.5 3V7H10.5V3H9.5ZM9 7.5H5V8.5H9V7.5ZM9.5 7C9.5 7.27614 9.27614 7.5 9 7.5V8.5C9.82843 8.5 10.5 7.82843 10.5 7H9.5ZM7.665 16.5H6.647V17.5H7.665V16.5ZM6.647 16.5C6.3428 16.5 6.05105 16.3792 5.83595 16.1641L5.12884 16.8712C5.53148 17.2738 6.07758 17.5 6.647 17.5V16.5ZM5.83595 16.1641C5.62084 15.9489 5.5 15.6572 5.5 15.353H4.5C4.5 15.9224 4.7262 16.4685 5.12884 16.8712L5.83595 16.1641ZM5.5 15.353V13.647H4.5V15.353H5.5ZM5.5 13.647C5.5 13.3428 5.62084 13.0511 5.83595 12.8359L5.12884 12.1288C4.7262 12.5315 4.5 13.0776 4.5 13.647H5.5ZM5.83595 12.8359C6.05105 12.6208 6.3428 12.5 6.647 12.5V11.5C6.07758 11.5 5.53148 11.7262 5.12884 12.1288L5.83595 12.8359ZM6.647 12.5H7.665V11.5H6.647V12.5ZM15.5214 12.1447L16.9644 16.9177L17.9216 16.6283L16.4786 11.8553L15.5214 12.1447ZM17.9183 16.9281L19.4753 12.1551L18.5247 11.8449L16.9677 16.6179L17.9183 16.9281ZM12 12.5H13V11.5H12V12.5ZM12 16.5H11V17.5H12V16.5ZM12 17C12 17.5 12.0002 17.5 12.0004 17.5C12.0005 17.5 12.0007 17.5 12.0009 17.5C12.0012 17.5 12.0015 17.5 12.0019 17.5C12.0026 17.5 12.0035 17.5 12.0044 17.5C12.0062 17.5 12.0084 17.5 12.011 17.4999C12.0162 17.4998 12.0228 17.4997 12.0307 17.4995C12.0466 17.4991 12.068 17.4982 12.0942 17.4967C12.1463 17.4936 12.2181 17.4875 12.3032 17.4757C12.4708 17.4524 12.7031 17.405 12.9423 17.3053C13.1811 17.2058 13.4477 17.0455 13.6561 16.785C13.8707 16.5167 14 16.171 14 15.75H13C13 15.954 12.9418 16.077 12.8752 16.1603C12.8023 16.2514 12.6939 16.3255 12.5577 16.3822C12.4219 16.4388 12.2792 16.4694 12.1656 16.4852C12.1101 16.4929 12.0647 16.4967 12.0347 16.4984C12.0199 16.4993 12.009 16.4997 12.003 16.4999C11.9999 16.5 11.9981 16.5 11.9976 16.5C11.9973 16.5 11.9974 16.5 11.9978 16.5C11.998 16.5 11.9983 16.5 11.9986 16.5C11.9988 16.5 11.999 16.5 11.9993 16.5C11.9994 16.5 11.9996 16.5 11.9996 16.5C11.9998 16.5 12 16.5 12 17ZM14 15.75C14 15.3712 13.924 15.0457 13.7689 14.7772C13.6118 14.5054 13.3926 14.3248 13.1611 14.209C12.7265 13.9918 12.2315 14 12 14V15C12.2685 15 12.5235 15.0082 12.7139 15.1035C12.795 15.144 12.8569 15.1977 12.903 15.2775C12.951 15.3606 13 15.5038 13 15.75H14ZM12 14C11.7315 14 11.4765 13.9918 11.2861 13.8965C11.2051 13.856 11.1431 13.8023 11.097 13.7225C11.049 13.6394 11 13.4962 11 13.25H10C10 13.6288 10.076 13.9543 10.2311 14.2228C10.3882 14.4946 10.6075 14.6752 10.8389 14.791C11.2735 15.0082 11.7685 15 12 15V14ZM11 13.25C11 13.046 11.0582 12.923 11.1248 12.8397C11.1977 12.7486 11.3061 12.6745 11.4423 12.6178C11.5781 12.5612 11.7208 12.5306 11.8344 12.5148C11.8899 12.5071 11.9353 12.5033 11.9653 12.5016C11.9801 12.5007 11.991 12.5003 11.997 12.5001C12.0001 12.5 12.0019 12.5 12.0024 12.5C12.0027 12.5 12.0026 12.5 12.0022 12.5C12.002 12.5 12.0017 12.5 12.0014 12.5C12.0012 12.5 12.001 12.5 12.0008 12.5C12.0006 12.5 12.0004 12.5 12.0004 12.5C12.0002 12.5 12 12.5 12 12C12 11.5 11.9998 11.5 11.9996 11.5C11.9995 11.5 11.9993 11.5 11.9991 11.5C11.9988 11.5 11.9985 11.5 11.9981 11.5C11.9974 11.5 11.9965 11.5 11.9956 11.5C11.9938 11.5 11.9916 11.5 11.989 11.5001C11.9838 11.5002 11.9772 11.5003 11.9693 11.5005C11.9534 11.5009 11.932 11.5018 11.9058 11.5033C11.8537 11.5064 11.782 11.5125 11.6968 11.5243C11.5292 11.5476 11.2969 11.595 11.0577 11.6947C10.8189 11.7942 10.5523 11.9545 10.3439 12.215C10.1293 12.4833 10 12.829 10 13.25H11Z" fill="currentColor"/>
</svg>
