<svg viewBox="0 0 24 24" fill="none" xmlns="http://www.w3.org/2000/svg">
<path d="M12 17.5C12.3978 17.5 12.7792 17.6581 13.0605 17.9395C13.2201 18.099 13.3382 18.2913 13.4121 18.5H10.5879C10.6618 18.2913 10.7799 18.099 10.9395 17.9395C11.2208 17.6581 11.6022 17.5 12 17.5Z" stroke="currentColor"/>
<path fill-rule="evenodd" clip-rule="evenodd" d="M9.61844 2.65763C10.0955 2.47908 10.6158 2.451 11.1093 2.57717C11.4337 2.66011 11.7362 2.80708 12 3.00759C12.2638 2.80708 12.5663 2.66011 12.8907 2.57717C13.3842 2.451 13.9045 2.47908 14.3816 2.65763C14.8586 2.83618 15.2695 3.15662 15.5588 3.5758C15.7638 3.87276 15.9009 4.20916 15.9626 4.56118C16.0725 4.53642 16.1842 4.51904 16.2971 4.5093C16.6823 4.47604 17.0701 4.5326 17.4298 4.67454C17.7895 4.81647 18.1113 5.03992 18.3701 5.3273C18.6288 5.61469 18.8173 5.95817 18.9209 6.33075C19.0244 6.70333 19.0401 7.09485 18.9667 7.47452C18.8933 7.85418 18.7328 8.21165 18.4979 8.51881C18.263 8.82596 17.96 9.07444 17.6128 9.24469C17.2661 9.41471 16.8847 9.50209 16.4985 9.5H14.315V11.5285C14.4128 11.7671 14.5749 11.9748 14.7842 12.1279C15.024 12.3032 15.3134 12.3977 15.6105 12.3977C15.9076 12.3977 16.197 12.3032 16.4368 12.1279C16.6766 11.9525 16.8544 11.7054 16.9446 11.4223C17.0107 11.2145 17.204 11.0735 17.4221 11.074C17.6402 11.0745 17.8329 11.2163 17.8981 11.4244C17.987 11.7079 18.1643 11.9556 18.404 12.1311C18.6438 12.3067 18.9334 12.4009 19.2305 12.4L19.2319 12.4C19.5176 12.4 19.7955 12.3061 20.0227 12.133C20.25 11.9598 20.4141 11.7168 20.4899 11.4413C20.5547 11.206 20.7799 11.0518 21.0227 11.0766C21.2654 11.1013 21.4549 11.2977 21.4709 11.5412L21.4989 11.9672C21.4996 11.9781 21.5 11.9891 21.5 12C21.5 14.5196 20.4991 16.9359 18.7175 18.7175C16.9359 20.4991 14.5196 21.5 12 21.5C9.48044 21.5 7.06408 20.4991 5.28249 18.7175C3.50089 16.9359 2.5 14.5196 2.5 12V11.574C2.5 11.3237 2.68504 11.112 2.93305 11.0785C3.18107 11.045 3.41566 11.2 3.48207 11.4413C3.5579 11.7168 3.72203 11.9598 3.94929 12.133C4.17654 12.3061 4.45436 12.4 4.74008 12.4C5.03794 12.4006 5.32915 12.3062 5.56966 12.1304C5.81017 11.9547 5.98838 11.7069 6.07836 11.4229C6.14284 11.2195 6.32938 11.0794 6.54276 11.0741C6.75614 11.0689 6.94931 11.1997 7.02367 11.3998C7.13269 11.6931 7.32874 11.9461 7.58556 12.1248C7.84238 12.3036 8.1477 12.3996 8.46061 12.4L8.46369 12.4C8.74576 12.4021 9.02041 12.3097 9.24386 12.1375C9.46731 11.9654 9.62669 11.7234 9.6966 11.4501C9.70443 11.4195 9.71499 11.3901 9.728 11.3623V9.5H7.50145C7.11531 9.50209 6.73391 9.41471 6.38718 9.24469C6.03998 9.07444 5.73701 8.82596 5.50209 8.51881C5.26717 8.21165 5.10671 7.85418 5.03331 7.47452C4.95992 7.09485 4.9756 6.70334 5.07913 6.33075C5.18265 5.95817 5.37119 5.61469 5.62992 5.3273C5.88866 5.03992 6.21053 4.81647 6.57023 4.67454C6.92994 4.5326 7.31766 4.47604 7.70293 4.5093C7.81578 4.51904 7.92752 4.53642 8.03742 4.56118C8.09914 4.20916 8.23618 3.87276 8.44117 3.5758C8.73054 3.15662 9.14141 2.83618 9.61844 2.65763ZM8.99998 4.99302C9.00188 5.06353 9.0092 5.1338 9.02187 5.2032C9.05726 5.39707 8.97547 5.59366 8.813 5.7052C8.65052 5.81675 8.43768 5.82245 8.26947 5.71975C8.07144 5.59886 7.84806 5.52555 7.6169 5.50559C7.38575 5.48563 7.15311 5.51957 6.93729 5.60473C6.72147 5.6899 6.52835 5.82396 6.3731 5.9964C6.21786 6.16883 6.10474 6.37492 6.04263 6.59847C5.98051 6.82201 5.9711 7.05692 6.01514 7.28472C6.05917 7.51252 6.15545 7.727 6.29641 7.9113C6.43736 8.09559 6.61914 8.24468 6.82746 8.34683C7.03578 8.44898 7.26496 8.50141 7.49697 8.5L7.5 8.49999L10.2258 8.5L10.228 8.49999L10.2302 8.5H10.888C11.1641 8.5 11.388 8.72385 11.388 9C11.388 9.27614 11.1641 9.5 10.888 9.5H10.728V11.574C10.728 11.5778 10.728 11.5816 10.7279 11.5854C10.8361 11.8005 10.9958 11.9869 11.1938 12.1273C11.4442 12.3049 11.7437 12.4002 12.0507 12.4L12.0545 12.4C12.3412 12.402 12.6205 12.3092 12.8489 12.136C13.0747 11.9648 13.2384 11.7245 13.315 11.4519V8.01499C13.315 7.73885 13.5389 7.51499 13.815 7.51499C14.0911 7.51499 14.315 7.73885 14.315 8.01499V8.5H16.503C16.735 8.5014 16.9642 8.44898 17.1725 8.34683C17.3809 8.24468 17.5626 8.09559 17.7036 7.9113C17.8445 7.727 17.9408 7.51252 17.9849 7.28472C18.0289 7.05692 18.0195 6.82201 17.9574 6.59847C17.8953 6.37492 17.7821 6.16883 17.6269 5.9964C17.4717 5.82396 17.2785 5.6899 17.0627 5.60473C16.8469 5.51957 16.6143 5.48563 16.3831 5.50559C16.1519 5.52555 15.9286 5.59886 15.7305 5.71975C15.5623 5.82245 15.3495 5.81675 15.187 5.7052C15.0245 5.59366 14.9427 5.39707 14.9781 5.2032C14.9908 5.13381 14.9981 5.06355 15 4.99303C15.0003 4.68976 14.9082 4.39355 14.7359 4.14391C14.5626 3.89294 14.3166 3.70108 14.031 3.59418C13.7454 3.48728 13.4339 3.47047 13.1384 3.54601C12.843 3.62155 12.5778 3.78581 12.3785 4.01668C12.2835 4.12673 12.1454 4.19 12 4.19C11.8546 4.19 11.7165 4.12673 11.6215 4.01668C11.4222 3.78581 11.157 3.62155 10.8616 3.54601C10.5661 3.47047 10.2546 3.48728 9.96898 3.59418C9.68337 3.70108 9.43738 3.89294 9.26413 4.14391C9.0918 4.39354 8.99968 4.68975 8.99998 4.99302ZM13.8152 12.5905C13.7079 12.7167 13.5866 12.8316 13.4531 12.9328C13.0494 13.2389 12.5559 13.4031 12.0494 13.4C11.5356 13.3999 11.0345 13.2402 10.6154 12.943C10.4675 12.8382 10.3324 12.718 10.212 12.5851C10.1064 12.712 9.98657 12.8277 9.85419 12.9297C9.45423 13.2378 8.96272 13.4034 8.45785 13.4C7.94163 13.399 7.43798 13.2405 7.01427 12.9456C6.85137 12.8322 6.70327 12.7007 6.57244 12.5543C6.45106 12.6971 6.31269 12.8261 6.15958 12.9379C5.74727 13.2391 5.24963 13.401 4.73901 13.4C4.32578 13.3998 3.56888 13.0801 3.56888 13.0801C3.80661 14.9361 4.65229 16.6731 5.98959 18.0104C7.58365 19.6045 9.74566 20.5 12 20.5C14.2543 20.5 16.4163 19.6045 18.0104 18.0104C19.3521 16.6687 20.1989 14.9247 20.4334 13.0619C20.5006 13.0209 20.5658 12.9764 20.6288 12.9283C20.9474 12.6856 21.1957 12.3651 21.3516 12C21.355 11.9921 21.3583 11.9842 21.3616 11.9762C21.3978 11.8887 21.4287 11.7987 21.4541 11.7067L20.972 11.574L20.4731 11.6068L20.5 12.0162C20.4995 12.2518 20.4893 12.4863 20.4695 12.7193C20.4598 12.8339 20.4478 12.9481 20.4334 13.0619C20.0732 13.282 19.658 13.3998 19.2328 13.4C18.7224 13.4014 18.225 13.2395 17.8132 12.938C17.6679 12.8316 17.5359 12.7097 17.4193 12.5752C17.6339 12.3291 17.7973 12.0403 17.8974 11.7256L17.421 11.574L16.9439 11.7236C17.0428 12.0389 17.2052 12.3284 17.4193 12.5752C17.3029 12.7086 17.1715 12.8295 17.027 12.9351C16.6159 13.2357 16.1198 13.3977 15.6105 13.3977C15.1012 13.3977 14.6051 13.2357 14.194 12.9351C14.055 12.8335 13.9282 12.7179 13.8152 12.5905ZM8.5 16C8.5 15.7239 8.72386 15.5 9 15.5H9.01C9.28614 15.5 9.51 15.7239 9.51 16C9.51 16.2761 9.28614 16.5 9.01 16.5H9C8.72386 16.5 8.5 16.2761 8.5 16ZM14.5 16C14.5 15.7239 14.7239 15.5 15 15.5H15.01C15.2861 15.5 15.51 15.7239 15.51 16C15.51 16.2761 15.2861 16.5 15.01 16.5H15C14.7239 16.5 14.5 16.2761 14.5 16Z" fill="currentColor"/>
</svg>
