<svg viewBox="0 0 24 24" fill="none" xmlns="http://www.w3.org/2000/svg">
<path d="M4.7142 6.69772C3.8957 7.84053 2.98022 9.97176 2.98022 11.5837C2.98022 13.6907 3.00251 14.7297 2.98022 15.048M5.99993 12.0058C5.6549 8.31398 10.708 3.90569 15.3366 7.02494M7.18866 4.44529C9.5759 2.43015 16.8306 1.68607 20.1169 8.13468M17.5937 9.80337C18.2959 11.3182 18.0251 15.2909 17.5135 18.2303M20.9923 12.0018C21.147 13.8814 20.7913 18.54 19.9164 20.9873M7.5165 19.3211C8.75658 17.501 8.99659 15.5208 8.99659 11.9806C8.99659 9.88049 10.8167 9.00042 11.9968 9.00042C13.1769 9.00042 14.997 9.96052 14.997 11.9806V14.3008M11.9841 12.0035C11.9841 14.8543 11.9841 18.0915 10.0287 21.0073M14.4568 18.2308C14.245 19.0232 13.8578 20.1644 13.496 20.9236M4.00875 21.0056C4.1928 17.838 5.29553 18.0773 5.80529 15.7574" stroke="currentColor" stroke-linecap="round"/>
</svg>
