<svg viewBox="0 0 24 24" fill="none" xmlns="http://www.w3.org/2000/svg">
<path d="M5 17V12H6.5C6.89782 12 7.27936 12.158 7.56066 12.4393C7.84196 12.7206 8 13.1022 8 13.5C8 13.8978 7.84196 14.2794 7.56066 14.5607C7.27936 14.842 6.89782 15 6.5 15H5M11 17V12H12.5C12.8978 12 13.2794 12.158 13.5607 12.4393C13.842 12.7206 14 13.1022 14 13.5C14 13.8978 13.842 14.2794 13.5607 14.5607C13.2794 14.842 12.8978 15 12.5 15H11M18 12V17M17 12H19M5 10V7.91421C5 7.649 5.10536 7.39464 5.29289 7.20711L9.20711 3.29289C9.39464 3.10536 9.649 3 9.91422 3H18C18.5523 3 19 3.44772 19 4V10M5 19V20C5 20.5523 5.44772 21 6 21H18C18.5523 21 19 20.5523 19 20V19M10 3V7C10 7.55228 9.55229 8 9 8H5" stroke="currentColor" stroke-linecap="round" stroke-linejoin="round"/>
</svg>
