<svg viewBox="0 0 24 24" fill="none" xmlns="http://www.w3.org/2000/svg">
<path d="M12 11H4M19.5 16C19.7761 16 20 15.7761 20 15.5V8C20 7.44772 19.5523 7 19 7H15.2493C14.9175 7 14.6073 6.83541 14.4213 6.56066L12.985 4.43934C12.7989 4.16459 12.4887 4 12.1569 4H8C7.44772 4 7 4.44772 7 5M4 9V19C4 19.5523 4.44772 20 5 20H16C16.5523 20 17 19.5523 17 19V12C17 11.4477 16.5523 11 16 11H12.2493C11.9175 11 11.6073 10.8354 11.4213 10.5607L9.98497 8.43934C9.79894 8.16459 9.48874 8 9.15692 8H5C4.44772 8 4 8.44772 4 9Z" stroke="currentColor" stroke-linecap="round" stroke-linejoin="round"/>
</svg>
