<svg viewBox="0 0 24 24" fill="none" xmlns="http://www.w3.org/2000/svg">
<path d="M10 3V7C10 7.55228 9.55228 8 9 8H5M19 4V20C19 20.5523 18.5523 21 18 21H6C5.44772 21 5 20.5523 5 20V7.91421C5 7.649 5.10536 7.39464 5.29289 7.20711L9.20711 3.29289C9.39464 3.10536 9.649 3 9.91421 3H18C18.5523 3 19 3.44772 19 4ZM15 5H15.01V5.01H15V5ZM13 7H13.01V7.01H13V7ZM15 9H15.01V9.01H15V9ZM13 11H13.01V11.01H13V11ZM15 13H15.01V13.01H15V13ZM13 15H13.01V15.01H13V15ZM15 17H15.01V17.01H15V17ZM13 19H13.01V19.01H13V19Z" stroke="currentColor" stroke-linecap="round"/>
</svg>
