<svg viewBox="0 0 24 24" fill="none" xmlns="http://www.w3.org/2000/svg">
<path d="M15 4V7C15 7.55228 14.5523 8 14 8H11M13 18V19C13 19.5523 12.5523 20 12 20H5C4.44772 20 4 19.5523 4 19V11.8699C4 11.6312 4.08539 11.4004 4.24074 11.2191L6.70068 8.34921C6.89066 8.12756 7.16801 8 7.45993 8H9M8 12H4M20 5V15C20 15.5523 19.5523 16 19 16H12C11.4477 16 11 15.5523 11 15V7.86992C11 7.63121 11.0854 7.40038 11.2407 7.21913L13.7007 4.34921C13.8907 4.12756 14.168 4 14.4599 4H19C19.5523 4 20 4.44772 20 5Z" stroke="currentColor" stroke-linejoin="round"/>
</svg>
