<svg viewBox="0 0 24 24" fill="none" xmlns="http://www.w3.org/2000/svg">
<path d="M12 21C16.9706 21 21 16.9706 21 12C21 7.02944 16.9706 3 12 3C7.02944 3 3 7.02944 3 12C3 16.9706 7.02944 21 12 21Z" stroke="currentColor" stroke-linecap="round" stroke-linejoin="round"/>
<path d="M17 13C17 15.038 14.761 17.5 12 17.5C9.239 17.5 7 15.038 7 13C7 14.444 17 14.444 17 13Z" stroke="currentColor" stroke-linecap="round" stroke-linejoin="round"/>
<path d="M9 6.81104L9.618 8.06404L11 8.26404L10 9.23904L10.236 10.616L9 9.96603L7.764 10.616L8 9.23904L7 8.26404L8.382 8.06404L9 6.81104Z" stroke="currentColor" stroke-linecap="round" stroke-linejoin="round"/>
<path d="M15 6.81104L15.618 8.06404L17 8.26404L16 9.23904L16.236 10.616L15 9.96603L13.764 10.616L14 9.23904L13 8.26404L14.382 8.06404L15 6.81104Z" stroke="currentColor" stroke-linecap="round" stroke-linejoin="round"/>
</svg>
