<svg viewBox="0 0 24 24" fill="none" xmlns="http://www.w3.org/2000/svg">
<path d="M4.24776 19.0001C3.22076 15.7701 5.27477 8.23209 12.4658 8.23209V6.07909C12.4571 5.8845 12.504 5.69147 12.601 5.52258C12.6981 5.3537 12.8413 5.21597 13.0138 5.12552C13.1863 5.03507 13.381 4.99564 13.5751 5.01186C13.7692 5.02808 13.9547 5.09927 14.1098 5.21709L19.5888 9.52409C19.7172 9.62796 19.8208 9.75923 19.8919 9.90828C19.9631 10.0573 20 10.2204 20 10.3856C20 10.5508 19.9631 10.7138 19.8919 10.8629C19.8208 11.012 19.7172 11.1432 19.5888 11.2471L14.1098 15.5541C13.9547 15.6719 13.7694 15.743 13.5753 15.7593C13.3813 15.7755 13.1867 15.7362 13.0142 15.6459C12.8418 15.5555 12.6986 15.418 12.6015 15.2492C12.5043 15.0805 12.4573 14.8876 12.4658 14.6931V12.5391C5.27477 13.6161 4.24776 19.0001 4.24776 19.0001Z" stroke="currentColor" stroke-linecap="round" stroke-linejoin="round"/>
</svg>
