<svg viewBox="0 0 24 24" fill="none" xmlns="http://www.w3.org/2000/svg">
<path d="M14.99 9H15M8.99 9H9M21 12C21 16.9706 16.9706 21 12 21C7.02944 21 3 16.9706 3 12C3 7.02944 7.02944 3 12 3C16.9706 3 21 7.02944 21 12ZM7 13C7 14 7.50725 15.3974 8.49416 16.2158C9.48108 17.0343 10.7229 17.4822 12.005 17.4822C13.2871 17.4822 14.5289 17.0343 15.5158 16.2158C16.5027 15.3974 17 14 17 13C17 13 15.01 14 12.005 14C9 14 7 13 7 13Z" stroke="currentColor" stroke-linecap="round" stroke-linejoin="round"/>
</svg>
