<svg viewBox="0 0 24 24" fill="none" xmlns="http://www.w3.org/2000/svg">
<path d="M14 17H20M17 20V14M4.857 4H9.143C9.61631 4 10 4.38369 10 4.857V9.143C10 9.61631 9.61631 10 9.143 10H4.857C4.38369 10 4 9.61631 4 9.143V4.857C4 4.38369 4.38369 4 4.857 4ZM14.857 4H19.143C19.6163 4 20 4.38369 20 4.857V9.143C20 9.61631 19.6163 10 19.143 10H14.857C14.3837 10 14 9.61631 14 9.143V4.857C14 4.38369 14.3837 4 14.857 4ZM4.857 14H9.143C9.61631 14 10 14.3837 10 14.857V19.143C10 19.6163 9.61631 20 9.143 20H4.857C4.38369 20 4 19.6163 4 19.143V14.857C4 14.3837 4.38369 14 4.857 14Z" stroke="currentColor" stroke-linecap="round" stroke-linejoin="round"/>
</svg>
