<svg viewBox="0 0 24 24" fill="none" xmlns="http://www.w3.org/2000/svg">
<path d="M4 13H8L8.87652 14.0957C10.4778 16.0973 13.5222 16.0973 15.1235 14.0957L16 13H20M19.9762 12.8928L18.087 4.39153C18.0362 4.16277 17.8333 4 17.5989 4H6.40109C6.16674 4 5.96383 4.16277 5.91299 4.39153L4.02381 12.8928C4.00799 12.9641 4 13.0368 4 13.1098V19C4 19.5523 4.44772 20 5 20H19C19.5523 20 20 19.5523 20 19V13.1098C20 13.0368 19.992 12.9641 19.9762 12.8928Z" stroke="currentColor" stroke-linecap="round" stroke-linejoin="round"/>
</svg>
