<svg viewBox="0 0 24 24" fill="none" xmlns="http://www.w3.org/2000/svg">
<path d="M8 15H15.01V15.01H15L8 15Z" stroke="currentColor" stroke-linecap="square"/>
<path d="M20 6H4C3.44772 6 3 6.44772 3 7V17C3 17.5523 3.44772 18 4 18H20C20.5523 18 21 17.5523 21 17V7C21 6.44772 20.5523 6 20 6Z" stroke="currentColor" stroke-linecap="square"/>
<path d="M6 9H6.01V9.01H6V9Z" stroke="currentColor" stroke-linecap="square"/>
<path d="M6 12H6.01V12.01H6V12Z" stroke="currentColor" stroke-linecap="square"/>
<path d="M6 15H6.01V15.01H6V15Z" stroke="currentColor" stroke-linecap="square"/>
<path d="M9 9H9.01V9.01H9V9Z" stroke="currentColor" stroke-linecap="square"/>
<path d="M9 12H9.01V12.01H9V12Z" stroke="currentColor" stroke-linecap="square"/>
<path d="M12 9H12.01V9.01H12V9Z" stroke="currentColor" stroke-linecap="square"/>
<path d="M12 12H12.01V12.01H12V12Z" stroke="currentColor" stroke-linecap="square"/>
<path d="M15 12H15.01V12.01H15V12Z" stroke="currentColor" stroke-linecap="square"/>
<path d="M18 12H18.01V12.01H18V12Z" stroke="currentColor" stroke-linecap="square"/>
<path d="M18 15H18.01V15.01H18V15Z" stroke="currentColor" stroke-linecap="square"/>
<path d="M15 9H15.01V9.01H15V9Z" stroke="currentColor" stroke-linecap="square"/>
<path d="M18 9H18.01V9.01H18V9Z" stroke="currentColor" stroke-linecap="square"/>
</svg>
