<svg viewBox="0 0 24 24" fill="none" xmlns="http://www.w3.org/2000/svg">
<path d="M16.7921 19.6205C13.8729 21.4598 10.1271 21.4598 7.20795 19.6205M19.6205 7.20795C21.4598 10.1271 21.4598 13.8729 19.6205 16.792M7.20795 4.37952C10.1271 2.54016 13.8729 2.54016 16.7921 4.37952M4.37952 16.7921C2.54016 13.8729 2.54016 10.1271 4.37952 7.20795M10.9393 8.11091L7.05025 4.22183C6.2692 3.44078 5.00287 3.44078 4.22183 4.22183C3.44078 5.00287 3.44078 6.2692 4.22183 7.05025L8.11091 10.9393M8.11091 13.0607L4.22183 16.9497C3.44078 17.7308 3.44078 18.9971 4.22183 19.7782C5.00287 20.5592 6.26921 20.5592 7.05025 19.7782L10.9393 15.8891M13.0607 15.8891L16.9497 19.7782C17.7308 20.5592 18.9971 20.5592 19.7782 19.7782C20.5592 18.9971 20.5592 17.7308 19.7782 16.9497L15.8891 13.0607M15.8891 10.9393L19.7782 7.05025C20.5592 6.2692 20.5592 5.00287 19.7782 4.22183C18.9971 3.44078 17.7308 3.44078 16.9497 4.22183L13.0607 8.11091M14.8284 9.17157C16.3905 10.7337 16.3905 13.2663 14.8284 14.8284C13.2663 16.3905 10.7337 16.3905 9.17157 14.8284C7.60948 13.2663 7.60948 10.7337 9.17157 9.17157C10.7337 7.60948 13.2663 7.60948 14.8284 9.17157Z" stroke="currentColor"/>
</svg>
