<svg viewBox="0 0 24 24" fill="none" xmlns="http://www.w3.org/2000/svg">
<path d="M12 6H20M12 12H20M12 18H20M4 16C3.99972 15.6656 4.08329 15.3365 4.24305 15.0428C4.40282 14.749 4.63368 14.5 4.91453 14.3185C5.19538 14.1371 5.51724 14.0289 5.85069 14.0039C6.18414 13.979 6.51852 14.038 6.82326 14.1756C7.128 14.3133 7.39336 14.5251 7.59508 14.7918C7.7968 15.0585 7.92844 15.3715 7.97795 15.7022C8.02747 16.0329 7.99328 16.3707 7.87851 16.6848C7.76374 16.9989 7.57206 17.2791 7.321 17.5L4 20H9M4 5L6 4V10M4 10H8" stroke="currentColor" stroke-linecap="round" stroke-linejoin="round"/>
</svg>
