<svg viewBox="0 0 24 24" fill="none" xmlns="http://www.w3.org/2000/svg">
<path d="M11.9999 7H12.0099M15.4965 8.51262H15.5065M8.5283 8.51262H8.5383M6.98988 12.0001H6.99988M15.9999 16.0001H18.7059C19.1194 16.0065 19.5244 15.8817 19.8627 15.6436C20.201 15.4056 20.4552 15.0666 20.5889 14.6751C20.9867 13.4013 21.0962 12.0549 20.9096 10.7335C20.723 9.41214 20.2448 8.14879 19.5098 7.03496C18.7747 5.92114 17.8012 4.98471 16.6596 4.2935C15.5181 3.60229 14.2371 3.1736 12.9094 3.03845C11.5818 2.90331 10.2407 3.06511 8.98331 3.51213C7.7259 3.95916 6.58363 4.68021 5.63923 5.62309C4.69483 6.56596 3.97193 7.70706 3.52288 8.96374C3.07382 10.2204 2.90986 11.5612 3.04285 12.8891C3.21636 14.431 3.78125 15.903 4.68386 17.1651C5.58646 18.4272 6.79679 19.4375 8.19985 20.1001C9.37162 20.6822 10.6605 20.99 11.9689 21.0001C12.2337 21.0026 12.4964 20.9528 12.7419 20.8536C12.9874 20.7543 13.2109 20.6076 13.3996 20.4218C13.5883 20.236 13.7384 20.0148 13.8415 19.7708C13.9445 19.5268 13.9983 19.2649 13.9999 19.0001V18.1431C13.9852 17.8698 14.0258 17.5964 14.1192 17.3391C14.2127 17.0819 14.3572 16.8462 14.5439 16.6461C14.7306 16.446 14.9558 16.2857 15.206 16.1747C15.4562 16.0637 15.7262 16.0043 15.9999 16.0001Z" stroke="currentColor" stroke-linecap="round" stroke-linejoin="round"/>
</svg>
