<svg viewBox="0 0 24 24" fill="none" xmlns="http://www.w3.org/2000/svg">
<path d="M8.86559 14.8656C15.1233 21.1233 19.1254 16.3489 19.1254 16.3489C19.4969 15.9656 19.946 14.9051 19.1254 14.0845L17.7595 12.7187C17.268 12.2272 16.1583 11.9249 15.5308 12.5524L14.731 13.3522C14.0263 14.0569 12.9659 14.057 12.1573 13.2484L11.3201 12.4112M8.87605 14.8761C2.61837 8.61846 7.39281 4.61635 7.39281 4.61635C7.77604 4.2448 8.83658 3.79577 9.65716 4.61635L11.023 5.9822C11.5145 6.47368 11.8168 7.58341 11.1893 8.21094L10.3895 9.01074C9.68479 9.71541 9.68468 10.7758 10.4933 11.5845L11.3305 12.4217" stroke="currentColor"/>
</svg>
