<svg viewBox="0 0 24 24" fill="none" xmlns="http://www.w3.org/2000/svg">
<path d="M9.529 9.988C9.55433 9.32496 9.84201 8.69914 10.3288 8.2482C10.8155 7.79727 11.4615 7.55817 12.1245 7.5835C12.7875 7.60883 13.4134 7.89651 13.8643 8.38326C14.3152 8.87001 14.5543 9.51596 14.529 10.179C14.5244 10.504 14.4549 10.8247 14.3247 11.1225C14.1944 11.4202 14.0059 11.6889 13.7703 11.9128C13.5347 12.1367 13.2567 12.3112 12.9527 12.4261C12.6487 12.541 12.3248 12.594 12 12.582V14M11.99 17.0078H12M21 12C21 16.9706 16.9706 21 12 21C7.02944 21 3 16.9706 3 12C3 7.02944 7.02944 3 12 3C16.9706 3 21 7.02944 21 12Z" stroke="currentColor" stroke-linecap="round" stroke-linejoin="round"/>
</svg>
