<svg viewBox="0 0 24 24" fill="none" xmlns="http://www.w3.org/2000/svg">
<path d="M10 11V8C10 7.44772 9.55228 7 9 7H6C5.44772 7 5 7.44772 5 8V11C5 11.5523 5.44772 12 6 12H9C9.55228 12 10 11.5523 10 11ZM10 11V13C10 14.0609 9.57857 15.0783 8.82843 15.8284C8.07828 16.5786 7.06087 17 6 17H5M19 11V8C19 7.44772 18.5523 7 18 7H15C14.4477 7 14 7.44772 14 8V11C14 11.5523 14.4477 12 15 12H18C18.5523 12 19 11.5523 19 11ZM19 11V13C19 14.0609 18.5786 15.0783 17.8284 15.8284C17.0783 16.5786 16.0609 17 15 17H14" stroke="currentColor" stroke-linecap="round" stroke-linejoin="round"/>
</svg>
