<svg viewBox="0 0 24 24" fill="none" xmlns="http://www.w3.org/2000/svg">
<path d="M8.757 6L3.24 10.95C3.13253 11.0484 3.04672 11.168 2.98801 11.3014C2.9293 11.4347 2.89898 11.5788 2.89898 11.7245C2.89898 11.8702 2.9293 12.0143 2.98801 12.1476C3.04672 12.281 3.13253 12.4006 3.24 12.499L8.851 17.587M14.581 14.373V15.988C14.5993 16.1724 14.5632 16.3581 14.4771 16.5222C14.3911 16.6863 14.2589 16.8217 14.0968 16.9115C13.9347 17.0014 13.7499 17.0418 13.5651 17.0279C13.3804 17.0139 13.2037 16.9462 13.057 16.833L7.949 12.582C7.83262 12.4788 7.73945 12.3521 7.67564 12.2102C7.61183 12.0683 7.57884 11.9146 7.57884 11.759C7.57884 11.6034 7.61183 11.4497 7.67564 11.3078C7.73945 11.1659 7.83262 11.0392 7.949 10.936L13.057 6.685C13.2039 6.57222 13.3806 6.50483 13.5653 6.49114C13.75 6.47745 13.9347 6.51805 14.0966 6.60794C14.2585 6.69783 14.3906 6.83309 14.4767 6.99709C14.5628 7.16109 14.599 7.34667 14.581 7.531V9.231C17.893 9.231 20.581 12.21 20.581 15.885V17.214C20.605 17.3839 20.5658 17.5567 20.4708 17.6996C20.3758 17.8425 20.2316 17.9455 20.0656 17.989C19.8996 18.0326 19.7234 18.0137 19.5705 17.9359C19.4175 17.8581 19.2985 17.7268 19.236 17.567C18.8525 16.642 18.2089 15.8481 17.3831 15.2817C16.5574 14.7153 15.585 14.4007 14.584 14.376L14.581 14.373Z" stroke="currentColor" stroke-linecap="round" stroke-linejoin="round"/>
</svg>
