<svg viewBox="0 0 24 24" fill="none" xmlns="http://www.w3.org/2000/svg">
<path d="M14.5001 8.04608H11.0001V6.11908C11.0001 5.19808 10.1001 4.67308 9.47609 5.22508L4.36809 9.71508C4.25024 9.82717 4.15641 9.96205 4.0923 10.1115C4.02818 10.261 3.99512 10.4219 3.99512 10.5846C3.99512 10.7472 4.02818 10.9082 4.0923 11.0576C4.15641 11.2071 4.25024 11.342 4.36809 11.4541L9.47609 15.9441C10.1001 16.5001 11.0001 15.9711 11.0001 15.0511V13.1231H13.0001C13.3971 13.1261 13.7896 13.2073 14.1552 13.362C14.5208 13.5167 14.8524 13.7419 15.131 14.0247C15.4095 14.3076 15.6297 14.6425 15.7788 15.0105C15.9279 15.3784 16.0031 15.7721 16.0001 16.1691V19.0001C17.281 18.6198 18.3834 17.7936 19.1079 16.6709C19.8324 15.5483 20.131 14.2033 19.9498 12.8795C19.7685 11.5557 19.1193 10.3406 18.1197 9.45399C17.12 8.5674 15.8361 8.06797 14.5001 8.04608Z" stroke="currentColor" stroke-linecap="round" stroke-linejoin="round"/>
</svg>
