<svg viewBox="0 0 24 24" fill="none" xmlns="http://www.w3.org/2000/svg">
<path d="M17.6508 7.65088C16.8054 6.55235 15.658 5.72406 14.3492 5.26736C13.0404 4.81065 11.6269 4.74532 10.2815 5.07937C8.93617 5.41341 7.71735 6.13235 6.77417 7.14822C5.831 8.16408 5.20437 9.43283 4.97095 10.7992M17.9999 4V8H13.9999M6.34894 16.3491C7.1944 17.4476 8.34172 18.2759 9.65053 18.7326C10.9593 19.1894 12.3729 19.2547 13.7182 18.9206C15.0636 18.5866 16.2824 17.8677 17.2256 16.8518C18.1688 15.8359 18.7954 14.5672 19.0288 13.2008M5.99991 20V16H9.99991" stroke="currentColor" stroke-linecap="round" stroke-linejoin="round"/>
</svg>
