<svg viewBox="0 0 24 24" fill="none" xmlns="http://www.w3.org/2000/svg">
<path d="M15.5354 8.46438L8.46438 15.5354M9.9274 8.37149H9.93776M14.0259 15.6255H14.0362M7.52206 4.54225C8.42655 4.6301 9.31541 4.26191 9.89287 3.56023C10.9844 2.23383 13.0154 2.23383 14.1069 3.56023C14.6844 4.26191 15.5733 4.6301 16.4778 4.54225C18.1875 4.37621 19.6236 5.81229 19.4576 7.52206C19.3697 8.42655 19.7379 9.31541 20.4396 9.89287C21.766 10.9844 21.766 13.0154 20.4396 14.1069C19.7379 14.6844 19.3697 15.5733 19.4576 16.4778C19.6236 18.1875 18.1875 19.6236 16.4778 19.4576C15.5733 19.3697 14.6844 19.7379 14.1069 20.4396C13.0154 21.766 10.9844 21.766 9.89287 20.4396C9.31541 19.7379 8.42655 19.3697 7.52206 19.4576C5.81229 19.6236 4.37621 18.1875 4.54225 16.4778C4.6301 15.5733 4.26191 14.6844 3.56023 14.1069C2.23383 13.0154 2.23383 10.9844 3.56023 9.89287C4.26191 9.31541 4.6301 8.42655 4.54225 7.52206C4.37621 5.81229 5.81229 4.37621 7.52206 4.54225Z" stroke="currentColor" stroke-linecap="round"/>
</svg>
