<svg viewBox="0 0 24 24" fill="none" xmlns="http://www.w3.org/2000/svg">
<path d="M7.11111 20C5.39289 20 4 18.6071 4 16.8889V4.88889C4 4.39797 4.39797 4 4.88889 4H9.33333C9.82425 4 10.2222 4.39797 10.2222 4.88889V16.8889C10.2222 18.6071 8.82933 20 7.11111 20ZM7.11111 20H19.1111C19.602 20 20 19.602 20 19.1111V14.6667C20 14.1757 19.602 13.7778 19.1111 13.7778H14.7222C14.4907 13.7778 14.2683 13.8681 14.1023 14.0296L10.3352 17.6951C10.2788 17.75 10.2299 17.8127 10.1891 17.88C9.32125 19.3134 8.60796 19.7375 7.11111 20ZM7.11111 16.4444H7.12M15.0534 5.51743L18.1961 8.66012C18.5432 9.00726 18.5432 9.57007 18.1961 9.9172L10.2222 17.891V9.0915L13.7963 5.51743C14.1434 5.1703 14.7062 5.1703 15.0534 5.51743Z" stroke="currentColor" stroke-linecap="round"/>
</svg>
