<svg viewBox="0 0 24 24" fill="none" xmlns="http://www.w3.org/2000/svg">
<path d="M6 12C6.26346 11.9991 6.52418 11.9398 6.76728 11.8255C7.01037 11.7112 7.23108 11.5442 7.41679 11.334C7.60251 11.1238 7.7496 10.8744 7.84967 10.6003C7.94974 10.3261 8.00082 10.0324 8 9.736C8 10.3327 8.21071 10.905 8.58579 11.327C8.96086 11.7489 9.46957 11.986 10 11.986C10.5304 11.986 11.0391 11.7489 11.4142 11.327C11.7893 10.905 12 10.3327 12 9.736C12 10.3327 12.2107 10.905 12.5858 11.327C12.9609 11.7489 13.4696 11.986 14 11.986C14.5304 11.986 15.0391 11.7489 15.4142 11.327C15.7893 10.905 16 10.3327 16 9.736C16 10.0315 16.0517 10.3241 16.1522 10.597C16.2528 10.87 16.4001 11.1181 16.5858 11.327C16.7715 11.5359 16.992 11.7017 17.2346 11.8147C17.4773 11.9278 17.7374 11.986 18 11.986C18.2626 11.986 18.5227 11.9278 18.7654 11.8147C19.008 11.7017 19.2285 11.5359 19.4142 11.327C19.5999 11.1181 19.7472 10.87 19.8478 10.597C19.9483 10.3241 20 10.0315 20 9.736C20 8.76163 18.8915 5.88519 18.3821 4.6149C18.232 4.24056 17.869 4 17.4656 4H6.45631C6.04091 4 5.66955 4.25494 5.52654 4.64495C5.04378 5.96151 4 8.90422 4 9.736C4.02342 10.3256 4.24129 10.8842 4.61109 11.3028C4.98089 11.7214 5.47607 11.97 6 12ZM6 12C6.32828 11.9998 6.65145 11.9085 6.9408 11.734C7.23016 11.5596 7.47674 11.3074 7.65867 11H8.34044C8.52236 11.3075 8.76901 11.5598 9.05846 11.7342C9.34791 11.9086 9.67119 11.9999 9.99956 11.9999C10.3279 11.9999 10.6512 11.9086 10.9407 11.7342C11.2301 11.5598 11.4767 11.3075 11.6587 11H12.3404C12.5224 11.3075 12.769 11.5598 13.0585 11.7342C13.3479 11.9086 13.6712 11.9999 13.9996 11.9999C14.3279 11.9999 14.6512 11.9086 14.9407 11.7342C15.2301 11.5598 15.4767 11.3075 15.6587 11H16.3404C16.5226 11.3074 16.7694 11.5595 17.0589 11.7339C17.3483 11.9083 17.6716 11.9997 18 12C18.3757 11.9988 18.7432 11.877 19.0596 11.649M6 12C5.57592 11.9928 5.16636 11.8251 4.83733 11.524M5 12V19C5 19.5523 5.44772 20 6 20H8V15H11V20H18C18.5523 20 19 19.5523 19 19V12M14 15V17H16V15H14Z" stroke="currentColor" stroke-linecap="round" stroke-linejoin="round"/>
</svg>
