<svg viewBox="0 0 24 24" fill="none" xmlns="http://www.w3.org/2000/svg">
<path d="M15.141 6L20.659 10.95C20.7664 11.0484 20.8523 11.168 20.911 11.3014C20.9697 11.4347 21 11.5788 21 11.7245C21 11.8702 20.9697 12.0143 20.911 12.1476C20.8523 12.281 20.7664 12.4006 20.659 12.499L15.047 17.587M8.89304 14.373V15.988C8.87506 16.1724 8.9114 16.3581 8.99759 16.5221C9.08377 16.6861 9.21605 16.8214 9.37812 16.9112C9.5402 17.001 9.725 17.0414 9.90977 17.0275C10.0945 17.0136 10.2712 16.946 10.418 16.833L15.526 12.582C15.6424 12.4788 15.7356 12.3521 15.7994 12.2102C15.8632 12.0683 15.8962 11.9145 15.8962 11.759C15.8962 11.6034 15.8632 11.4496 15.7994 11.3078C15.7356 11.1659 15.6424 11.0392 15.526 10.936L10.418 6.68498C10.2711 6.57188 10.0944 6.50422 9.90949 6.49036C9.72461 6.47649 9.53972 6.51703 9.3776 6.60696C9.21548 6.6969 9.08322 6.83231 8.99712 6.9965C8.91101 7.16069 8.87484 7.34648 8.89304 7.53098V9.23098C5.58104 9.23098 2.89304 12.21 2.89304 15.885V17.214C2.87008 17.3833 2.90985 17.5552 3.00487 17.6973C3.09989 17.8393 3.24358 17.9417 3.40887 17.9851C3.57416 18.0285 3.74962 18.01 3.90217 17.9329C4.05472 17.8559 4.17383 17.7258 4.23704 17.567C4.62051 16.642 5.26416 15.8481 6.0899 15.2817C6.91565 14.7153 7.88801 14.4007 8.88904 14.376L8.89304 14.373Z" stroke="currentColor" stroke-linecap="round" stroke-linejoin="round"/>
</svg>
