<svg viewBox="0 0 24 24" fill="none" xmlns="http://www.w3.org/2000/svg">
<path d="M12 4.39162L12 19.2244M8.47634 9.37956L3.92288 9.74C3.0349 9.81029 2.67484 10.9045 3.35139 11.4767L6.82064 14.4109C7.10586 14.6522 7.23041 15.0307 7.14328 15.3914L6.08336 19.7786C5.87667 20.6342 6.81933 21.3104 7.57957 20.852L11.478 18.5009C11.7985 18.3076 12.2015 18.3076 12.522 18.5009L16.4204 20.852C17.1807 21.3104 18.1233 20.6342 17.9166 19.7786L16.8567 15.3914C16.7696 15.0307 16.8941 14.6522 17.1794 14.4109L20.6486 11.4767C21.3252 10.9045 20.9651 9.81029 20.0771 9.74L15.5237 9.37956C15.1493 9.34993 14.8232 9.11599 14.679 8.77362L12.9247 4.6091C12.5826 3.79697 11.4174 3.79697 11.0753 4.6091L9.32102 8.77362C9.17679 9.11599 8.85069 9.34993 8.47634 9.37956Z" stroke="currentColor"/>
</svg>
