<svg viewBox="0 0 24 24" fill="none" xmlns="http://www.w3.org/2000/svg">
<path d="M5.5 21H18.5M12 21V7M12 7C13.1046 7 14 6.10457 14 5C14 3.89543 13.1046 3 12 3C10.8954 3 10 3.89543 10 5C10 6.10457 10.8954 7 12 7ZM14 5.2C17.073 5.861 16.467 8 19 8M5 8C8.359 8 7.192 5.885 10.012 5.207M7.00002 9.55556V7.75M7.00002 9.55556L5.04979 13.9492C5.00543 14.0669 4.9904 14.1934 5.00599 14.3181C5.02157 14.4428 5.0673 14.5619 5.13927 14.6652C5.21123 14.7684 5.30729 14.8528 5.41923 14.9112C5.53116 14.9695 5.65564 15 5.782 15H8.21803C8.3444 15 8.46887 14.9695 8.58081 14.9112C8.69274 14.8528 8.7888 14.7684 8.86077 14.6652C8.93273 14.5619 8.97846 14.4428 8.99405 14.3181C9.00963 14.1934 8.9946 14.0669 8.95024 13.9492L7.00002 9.55556ZM17 9.55556V7.3125M17 9.55556L15.0498 13.9492C15.0054 14.0669 14.9904 14.1934 15.006 14.3181C15.0216 14.4428 15.0673 14.5619 15.1393 14.6652C15.2112 14.7684 15.3073 14.8528 15.4192 14.9112C15.5312 14.9695 15.6556 15 15.782 15H18.218C18.3444 15 18.4689 14.9695 18.5808 14.9112C18.6927 14.8528 18.7888 14.7684 18.8608 14.6652C18.9327 14.5619 18.9785 14.4428 18.994 14.3181C19.0096 14.1934 18.9946 14.0669 18.9502 13.9492L17 9.55556Z" stroke="currentColor" stroke-linecap="round" stroke-linejoin="round"/>
</svg>
