<svg viewBox="0 0 24 24" fill="none" xmlns="http://www.w3.org/2000/svg">
<path d="M17 13C16.111 13.0862 15.5838 13.5435 14.8444 14.0571C13.2908 15.545 11.9572 17.2575 10.8857 19.1406C10.7511 19.4004 10.5501 19.6177 10.3042 19.7691C10.0583 19.9205 9.77682 20.0003 9.49003 20C9.26517 20.0001 9.04286 19.9511 8.83787 19.8563C8.63289 19.7615 8.44992 19.623 8.30114 19.45C8.15235 19.2771 8.04115 19.0736 7.97493 18.8531C7.90871 18.6327 7.88898 18.4003 7.91705 18.1714L9.30555 14.0571M17 13L20 13V6.5C20 5.67157 19.3284 5 18.5 5C17.6716 5 17 5.67157 17 6.5V13ZM10.5 14H5.58497C5.29857 13.9999 5.21317 13.9861 4.95915 13.8504C4.70513 13.7147 4.48673 13.5182 4.32243 13.2775C4.15814 13.0369 4.0528 12.7591 4.01532 12.4678C3.97785 12.1765 4.00935 11.8803 4.10716 11.6041L6.20505 5.20411C6.46172 4.48091 6.63194 4 7.87962 4C10.1825 4 12.6707 4.94263 14.5503 5.47474" stroke="currentColor" stroke-linecap="round" stroke-linejoin="round"/>
</svg>
