<svg viewBox="0 0 24 24" fill="none" xmlns="http://www.w3.org/2000/svg">
<path d="M13 7H19L21 11M13 7V15M13 7V6C13 5.73478 12.8946 5.48043 12.7071 5.29289C12.5196 5.10536 12.2652 5 12 5H4C3.73478 5 3.48043 5.10536 3.29289 5.29289C3.10536 5.48043 3 5.73478 3 6V15H5M13 15H9M13 15H15M19 15H21V11M21 11H16M19.5 16.5C19.5 17.8807 18.3807 19 17 19C15.6193 19 14.5 17.8807 14.5 16.5C14.5 15.1193 15.6193 14 17 14C18.3807 14 19.5 15.1193 19.5 16.5ZM9.5 16.5C9.5 17.8807 8.38071 19 7 19C5.61929 19 4.5 17.8807 4.5 16.5C4.5 15.1193 5.61929 14 7 14C8.38071 14 9.5 15.1193 9.5 16.5Z" stroke="currentColor" stroke-linecap="round" stroke-linejoin="round"/>
</svg>
