<svg viewBox="0 0 24 24" fill="none" xmlns="http://www.w3.org/2000/svg">
<path d="M7 19H5C4.44772 19 4 18.5523 4 18V17C4 15.3431 5.34315 14 7 14H8M12 8C12 9.65685 10.6569 11 9 11C7.34315 11 6 9.65685 6 8C6 6.34315 7.34315 5 9 5C10.6569 5 12 6.34315 12 8ZM13.9393 18.3891L19.5962 12.7322C20.3772 11.9512 20.3772 10.6849 19.5962 9.90381C18.8151 9.12276 17.5488 9.12276 16.7678 9.90381L11.1109 15.5607L10.4038 19.0962L13.9393 18.3891Z" stroke="currentColor" stroke-linecap="square" stroke-linejoin="round"/>
</svg>
