<svg viewBox="0 0 24 24" fill="none" xmlns="http://www.w3.org/2000/svg">
<path d="M10 19H5C4.44772 19 4 18.5523 4 18V17C4 15.3431 5.34315 14 7 14H9M19 15C19 16.6569 17.6569 18 16 18M19 15C19 13.3431 17.6569 12 16 12M19 15L20 15M16 18C14.3431 18 13 16.6569 13 15M16 18V19M13 15C13 13.3431 14.3431 12 16 12M13 15L12 15.0001M16 12V11M13.8787 12.8787L13.1716 12.1716M18.8284 17.8284L18.1213 17.1213M13.8787 17.1213L13.1716 17.8284M18.8284 12.1716L18.1213 12.8787M12 8C12 9.65685 10.6569 11 9 11C7.34315 11 6 9.65685 6 8C6 6.34315 7.34315 5 9 5C10.6569 5 12 6.34315 12 8Z" stroke="currentColor" stroke-linecap="square" stroke-linejoin="round"/>
</svg>
