<svg viewBox="0 0 24 24" fill="none" xmlns="http://www.w3.org/2000/svg">
<path d="M15.5 8.42933C16.4257 9.33679 17 10.6014 17 12C17 13.3628 16.4548 14.5982 15.5707 15.5M18.364 18.364C19.9926 16.7353 21 14.4853 21 12C21 9.51477 19.9926 7.26477 18.364 5.63609M12 6.13509V17.865C12 18.7128 11.0111 19.176 10.3598 18.6332L6 15H4C3.44772 15 3 14.5523 3 14V10C3 9.44776 3.44772 9.00005 4 9.00005H6L10.3598 5.36687C11.0111 4.8241 12 5.28725 12 6.13509Z" stroke="currentColor" stroke-linecap="round" stroke-linejoin="round"/>
</svg>
